<svg class="logo" xmlns="http://www.w3.org/2000/svg" viewBox="0 0 998.93 190.18"><title>Aardman</title><path d="M53.31,90.62,44,66.86a2.71,2.71,0,0,0-2.36-1.72l-25.47-1.5a2.71,2.71,0,0,1-1.56-4.8L34.26,42.73a2.71,2.71,0,0,0,.86-2.92L27.48,16a2.71,2.71,0,0,1,3.93-3.17L54.46,26.13a2.72,2.72,0,0,0,2.73,0L79.54,12.87a2.7,2.7,0,0,1,4,3.09l-7,23.88a2.71,2.71,0,0,0,.88,2.86L97,58.84a2.71,2.71,0,0,1-1.56,4.8L70,65.14a2.68,2.68,0,0,0-2.36,1.72l-9.3,23.76A2.71,2.71,0,0,1,53.31,90.62Z" transform="translate(-13.62 -12.48)" style="fill:#fff;"></path><path d="M880.34,195.14l-36.28-92.72a8,8,0,0,0-7.44-5.08H809a8,8,0,0,0-7.43,5.08l-36.29,92.72A5,5,0,0,0,770,202h20.53a7.67,7.67,0,0,0,7.14-4.87l3.32-8.5a5.06,5.06,0,0,1,4.71-3.21h34.22a5,5,0,0,1,4.7,3.21l3.32,8.5A7.67,7.67,0,0,0,855.1,202h20.54A5,5,0,0,0,880.34,195.14ZM815,152.84l5.3-13.55a2.69,2.69,0,0,1,5,0l5.3,13.55a2.69,2.69,0,0,1-2.5,3.66h-10.6A2.68,2.68,0,0,1,815,152.84Z" transform="translate(-13.62 -12.48)" style="fill:#fff;"></path><path d="M306.16,195.14l-36.28-92.72a8,8,0,0,0-7.44-5.08H234.85a8,8,0,0,0-7.44,5.08l-36.28,92.72a5,5,0,0,0,4.7,6.88h20.54a7.67,7.67,0,0,0,7.14-4.87l3.32-8.5a5.05,5.05,0,0,1,4.7-3.21h34.23a5.05,5.05,0,0,1,4.7,3.21l3.32,8.5a7.67,7.67,0,0,0,7.14,4.87h20.54A5,5,0,0,0,306.16,195.14Zm-65.31-42.3,5.3-13.55a2.68,2.68,0,0,1,5,0l5.3,13.55a2.68,2.68,0,0,1-2.5,3.66h-10.6A2.68,2.68,0,0,1,240.85,152.84Z" transform="translate(-13.62 -12.48)" style="fill:#fff;"></path><path d="M162.82,195.14l-36.28-92.72a8,8,0,0,0-7.44-5.08H91.51a8,8,0,0,0-7.43,5.08L47.8,195.14A5,5,0,0,0,52.5,202H73a7.66,7.66,0,0,0,7.14-4.87l3.33-8.5a5,5,0,0,1,4.7-3.21h34.22a5,5,0,0,1,4.7,3.21l3.32,8.5a7.68,7.68,0,0,0,7.15,4.87h20.53A5,5,0,0,0,162.82,195.14Zm-65.31-42.3,5.3-13.55a2.69,2.69,0,0,1,5,0l5.3,13.55a2.68,2.68,0,0,1-2.5,3.66H100A2.68,2.68,0,0,1,97.51,152.84Z" transform="translate(-13.62 -12.48)" style="fill:#fff;"></path><path d="M516.62,97.34H479.11a7.66,7.66,0,0,0-7.67,7.67v89.35a7.66,7.66,0,0,0,7.67,7.66h37.51a52.34,52.34,0,1,0,0-104.68Zm-.48,71.52h-8.85a2.68,2.68,0,0,1-2.69-2.68v-33a2.68,2.68,0,0,1,2.69-2.68h9.33a19.19,19.19,0,0,1,19.1,19.86A19.45,19.45,0,0,1,516.14,168.86Z" transform="translate(-13.62 -12.48)" style="fill:#fff;"></path><path d="M1004.89,97.34H987.06a7.67,7.67,0,0,0-7.67,7.67v45.08a1.27,1.27,0,0,1-2.45.49l-19.8-46.94a10.3,10.3,0,0,0-9.5-6.3h-27.7a7.66,7.66,0,0,0-7.67,7.67v89.35a7.66,7.66,0,0,0,7.67,7.66h17.83a7.66,7.66,0,0,0,7.66-7.66V153.25a1.28,1.28,0,0,1,2.46-.49l18.12,43a10.3,10.3,0,0,0,9.5,6.3h29.38a7.67,7.67,0,0,0,7.67-7.66V105A7.67,7.67,0,0,0,1004.89,97.34Z" transform="translate(-13.62 -12.48)" style="fill:#fff;"></path><path d="M432.85,195.23,416,162.35a2.7,2.7,0,0,1,.76-3.35,34.19,34.19,0,0,0,13-27c-.1-18.92-15.87-34-34.78-34H346.78a7.66,7.66,0,0,0-7.66,7.66V195a7.66,7.66,0,0,0,7.66,7.67h17.83a7.66,7.66,0,0,0,7.67-7.67v-25.9a2.68,2.68,0,0,1,2.68-2.68h6.84a5,5,0,0,1,4.49,2.74l14.89,29a8.31,8.31,0,0,0,7.39,4.51h19.74A5.1,5.1,0,0,0,432.85,195.23Zm-36.34-63.09a9.16,9.16,0,0,1-9.15,9.16H375a2.69,2.69,0,0,1-2.68-2.69v-13A2.68,2.68,0,0,1,375,123h12.4a9.16,9.16,0,0,1,9.15,9.16Z" transform="translate(-13.62 -12.48)" style="fill:#fff;"></path><path d="M726,97.34H695.09a7.67,7.67,0,0,0-7.14,4.87l-16.88,43.15a2.68,2.68,0,0,1-5,0l-16.89-43.15A7.66,7.66,0,0,0,642,97.34h-30.9a7.66,7.66,0,0,0-7.67,7.67v89.35a7.66,7.66,0,0,0,7.67,7.66H629a7.66,7.66,0,0,0,7.67-7.66v-32.7a1.28,1.28,0,0,1,2.47-.47l14.07,36a7.66,7.66,0,0,0,7.14,4.87H666l1,0c.19,0,.38,0,.58,0h9.24a7.68,7.68,0,0,0,7.15-4.87l14.07-36a1.27,1.27,0,0,1,2.46.47v32.7a7.67,7.67,0,0,0,7.67,7.66H726a7.67,7.67,0,0,0,7.67-7.66V105A7.67,7.67,0,0,0,726,97.34Z" transform="translate(-13.62 -12.48)" style="fill:#fff;"></path></svg>
