<svg id="studioaka_svg" alt="Studio AKA Logo" width="100%" height="100%" viewBox="0 0 400 400" version="1.1" xmlns="http://www.w3.org/2000/svg" xmlns:xlink="http://www.w3.org/1999/xlink" style="fill: rgb(255, 255, 255);">
			<path d="M400.000,0L-0.001,0L-0.001,400L400.000,400L400.000,0ZM301.661,342.163L314.807,325.783L326.966,325.468L311.02,345.205L330.053,371.079L319.847,371.52L301.706,348.457L301.829,365.472L291.938,365.787L292.064,304.678L301.388,304.489L301.661,342.163ZM104.263,326.35L104.263,351.738C104.263,353.817 104.956,355.518 106.342,356.904C107.413,357.975 108.736,358.605 110.185,358.794L111.067,358.92L111.382,358.92C113.461,358.92 115.162,358.227 116.548,356.841C117.808,355.455 118.501,353.817 118.627,351.801L118.627,326.35L129.4,326.35L129.4,367.425L123.037,364.149L122.281,364.023L121.966,364.149C118.312,366.921 114.532,368.181 110.5,367.992C106.468,367.803 102.751,366.291 99.223,363.582C95.695,360.684 93.931,355.707 93.805,348.651L93.931,326.35L104.263,326.35ZM165.04,328.61L164.806,304.615L174.129,304.489L174.696,367.362L165.957,363.051C162.313,365.853 158.056,367.236 153.151,367.236C147.355,367.236 142.378,365.157 138.22,361.062C134.062,356.967 132.046,351.927 132.046,346.068C132.046,340.209 134.125,335.296 138.22,331.201C142.378,327.106 147.355,325.027 153.151,325.027C157.561,325.027 161.533,326.23 165.04,328.61ZM278.156,328.718L278.079,324.838L287.969,324.838L287.969,367.362L279.108,362.901C275.421,365.804 271.101,367.236 266.109,367.236C260.313,367.236 255.336,365.157 251.178,361.062C247.02,356.967 245.004,351.927 245.004,346.068C245.004,340.209 247.083,335.296 251.178,331.201C255.336,327.106 260.313,325.027 266.109,325.027C270.585,325.027 274.61,326.267 278.156,328.718ZM354.952,328.718L354.875,324.838L364.766,324.838L364.766,367.362L355.904,362.901C352.218,365.804 347.897,367.236 342.905,367.236C337.109,367.236 332.132,365.157 327.974,361.062C323.816,356.967 321.8,351.927 321.8,346.068C321.8,340.209 323.879,335.233 327.974,331.201C332.132,327.043 337.109,325.027 342.905,325.027C347.381,325.027 351.406,326.267 354.952,328.718ZM235.113,346.131C235.113,352.053 233.097,357.03 229.002,361.125C224.907,365.22 219.93,367.236 214.008,367.236C208.212,367.236 203.235,365.157 199.077,361.062C194.919,356.967 192.903,351.927 192.903,346.068C192.903,340.209 194.982,335.296 199.077,331.201C203.235,327.043 208.212,325.027 214.008,325.027C219.804,325.027 224.844,327.106 229.065,331.201C233.097,335.233 235.113,340.209 235.113,346.131ZM63.061,326.917C64.51,328.177 65.644,329.626 66.463,331.201L58.4,336.115C57.266,334.225 56.006,332.965 54.557,332.398C50.462,330.949 47.816,334.666 49.139,336.178C49.958,337.122 51.47,338.319 55.376,340.209C59.282,342.099 61.423,343.17 61.738,343.485L64.384,345.564C66.337,347.454 67.219,350.163 67.03,353.691C66.778,357.282 65.266,360.369 62.494,362.826C59.722,365.157 56.384,366.354 52.478,366.354C48.446,366.228 44.729,364.968 41.39,362.511C39.122,360.873 37.673,359.046 37.106,357.03L45.233,353.313C45.737,354.51 46.745,355.518 48.32,356.4C49.517,357.156 51.029,357.534 52.919,357.408C54.683,357.408 55.943,356.967 56.762,356.148C58.211,354.699 57.959,353.124 56.006,351.423C51.596,349.281 47.312,346.95 43.154,344.493C40.508,342.036 39.185,339.138 39.185,335.737C39.185,332.335 40.508,329.437 43.154,327.043C45.8,324.649 49.013,323.389 52.856,323.389C56.699,323.389 60.037,324.586 63.061,326.917ZM83.662,326.035L90.529,326.035L90.529,334.036L83.662,334.036L83.662,366.354L73.456,366.354L73.456,334.036L67.345,334.036L73.267,326.035L73.456,326.035L73.456,314.065L83.662,314.065L83.662,326.035ZM189.312,366.354L179.106,366.354L179.106,326.224L189.312,326.224L189.312,366.354ZM165.196,344.638C164.857,342.111 163.761,339.921 161.908,338.067C159.64,335.674 156.868,334.54 153.592,334.54C150.316,334.54 147.544,335.737 145.276,338.067C142.882,340.335 141.748,343.107 141.748,346.383C141.748,349.659 142.945,352.431 145.276,354.699C147.544,357.03 150.316,358.227 153.466,358.227C156.805,358.227 159.64,357.03 161.908,354.699C163.823,352.784 164.93,350.509 165.227,347.874L165.196,344.638ZM266.55,358.227C269.826,358.227 272.535,357.03 274.803,354.699C277.197,352.431 278.331,349.659 278.331,346.383C278.331,343.107 277.134,340.335 274.803,338.067C272.535,335.674 269.763,334.54 266.487,334.54C263.211,334.54 260.439,335.737 258.171,338.067C255.903,340.335 254.769,343.107 254.769,346.383C254.769,349.659 255.903,352.431 258.171,354.699C260.502,357.03 263.337,358.227 266.55,358.227ZM222.702,338.004C220.434,335.611 217.662,334.477 214.386,334.477C211.11,334.477 208.338,335.674 206.07,338.004C203.676,340.272 202.542,343.044 202.542,346.32C202.542,349.596 203.739,352.368 206.07,354.636C208.464,357.03 211.173,358.164 214.323,358.164C217.662,358.164 220.497,356.967 222.765,354.636C224.97,352.431 226.104,349.659 226.104,346.32C226.104,342.981 224.97,340.272 222.702,338.004ZM334.904,338.004C332.636,340.272 331.502,343.044 331.502,346.32C331.502,349.596 332.636,352.368 334.904,354.636C337.298,357.03 340.07,358.164 343.346,358.164C346.622,358.164 349.331,356.967 351.599,354.636C353.993,352.368 355.127,349.596 355.127,346.32C355.127,343.044 353.93,340.272 351.599,338.004C349.331,335.611 346.559,334.477 343.283,334.477C340.007,334.477 337.172,335.674 334.904,338.004ZM189.312,319.987L179.106,319.987L179.106,310.222L189.312,310.222L189.312,319.987Z"></path>
		</svg>
